<svg xmlns="http://www.w3.org/2000/svg" width="75.274" height="75.274" viewBox="0 0 75.274 75.274">
  <path id="Icon_material-account-circle" data-name="Icon material-account-circle" d="M39.387,3A36.387,36.387,0,1,0,75.774,39.387,36.4,36.4,0,0,0,39.387,3Zm0,10.916A10.916,10.916,0,1,1,28.471,24.832,10.9,10.9,0,0,1,39.387,13.916Zm0,51.669A26.2,26.2,0,0,1,17.555,53.869c.109-7.241,14.555-11.207,21.832-11.207,7.241,0,21.723,3.966,21.832,11.207A26.2,26.2,0,0,1,39.387,65.585Z" transform="translate(-1.75 -1.75)" fill="none" stroke="#fff" stroke-width="2.5"/>
</svg>
