<svg xmlns="http://www.w3.org/2000/svg" width="56.29" height="66.16" viewBox="0 0 56.29 66.16">
  <path id="Icon_ionic-md-notifications-outline" data-name="Icon ionic-md-notifications-outline" d="M32.924,14.552a22.3,22.3,0,0,1,3.688.691,15.718,15.718,0,0,1,11.98,15.4V50.325l1.438,1.444,1.2,1.207H14.309l1.2-1.207,1.438-1.444V30.643a15.718,15.718,0,0,1,11.98-15.4,27.3,27.3,0,0,1,3.688-.691M32.77,3.375a4.715,4.715,0,0,0-4.79,4.812v2.245A20.793,20.793,0,0,0,12.012,30.643V48.287L5.625,54.7v3.208H59.914V54.7l-6.387-6.416V30.643A20.793,20.793,0,0,0,37.56,10.432V8.187a4.715,4.715,0,0,0-4.79-4.812Zm6.387,57.744H26.383a6.387,6.387,0,1,0,12.774,0Z" transform="translate(-4.625 -2.375)" fill="none" stroke="#fff" stroke-width="2"/>
</svg>
